<!--vertex--><svg width="512" height="512" xmlns="http://www.w3.org/2000/svg"><defs/><g id="layer1"><path id="rect1" fill="none" stroke="currentColor" stroke-width="30" stroke-linecap="round" stroke-linejoin="round" d="M 421 15 L 475 15 C 487.15027 15 497 24.849735 497 37 L 497 475 C 497 487.15027 487.15027 497 475 497 L 421 497 C 408.84973 497 399 487.15027 399 475 L 399 37 C 399 24.849735 408.84973 15 421 15 Z"/><path id="rect1-0" fill="currentColor" stroke="currentColor" stroke-width="30" stroke-linecap="round" stroke-linejoin="round" d="M 37 271 L 91 271 C 103.15026 271 113 280.84973 113 293 L 113 475 C 113 487.15027 103.15026 497 91 497 L 37 497 C 24.849735 497 15 487.15027 15 475 L 15 293 C 15 280.84973 24.849735 271 37 271 Z"/><path id="rect1-0-5" fill="currentColor" stroke="currentColor" stroke-width="30" stroke-linecap="round" stroke-linejoin="round" d="M 229 143 L 283 143 C 295.15027 143 305 152.84973 305 165 L 305 475 C 305 487.15027 295.15027 497 283 497 L 229 497 C 216.84973 497 207 487.15027 207 475 L 207 165 C 207 152.84973 216.84973 143 229 143 Z"/></g></svg>