<!--vertex--><svg width="512" height="512" xmlns="http://www.w3.org/2000/svg"><defs/><g id="layer1"><path id="rect1" fill="none" stroke="currentColor" stroke-width="30" stroke-linecap="round" stroke-linejoin="round" d="M 60.133423 15 L 451.86658 15 C 476.7931 15 497 35.20692 497 60.133423 L 497 163.86658 C 497 188.79308 476.7931 209 451.86658 209 L 60.133423 209 C 35.20692 209 15 188.79308 15 163.86658 L 15 60.133423 C 15 35.20692 35.20692 15 60.133423 15 Z"/><path id="rect1-3" fill="none" stroke="currentColor" stroke-width="30" stroke-linecap="round" stroke-linejoin="round" d="M 60.133423 303 L 451.86658 303 C 476.7931 303 497 323.2069 497 348.13342 L 497 451.86658 C 497 476.7931 476.7931 497 451.86658 497 L 60.133423 497 C 35.20692 497 15 476.7931 15 451.86658 L 15 348.13342 C 15 323.2069 35.20692 303 60.133423 303 Z"/><path id="path1" fill="currentColor" stroke="currentColor" stroke-width="30" stroke-linecap="round" stroke-linejoin="round" d="M 107.90061 111.98578 C 107.90061 115.11001 105.58978 117.752594 102.493454 118.16921 C 99.39712 118.58582 96.46999 116.648026 95.6442 113.634895 C 94.81842 110.621765 96.34856 107.46239 99.224655 106.24217 C 102.10075 105.02195 105.43597 106.11714 107.02882 108.80483 L 101.66146 111.98578 Z"/><path id="path1-3" fill="currentColor" stroke="currentColor" stroke-width="30" stroke-linecap="round" stroke-linejoin="round" d="M 107.90061 399.98578 C 107.90061 403.11002 105.58978 405.7526 102.493454 406.16922 C 99.39712 406.58585 96.46999 404.64807 95.6442 401.6349 C 94.81842 398.62177 96.34856 395.4624 99.224655 394.24216 C 102.10075 393.02194 105.43597 394.11713 107.02882 396.80484 L 101.66146 399.98578 Z"/></g></svg>