<!--vertex--><svg width="512" height="512" xmlns="http://www.w3.org/2000/svg"><defs/><g id="layer1"><g transform="matrix(1 0 0 1 0 26)"><path id="rect1" fill="none" stroke="currentColor" stroke-width="30" stroke-linecap="round" stroke-linejoin="round" d="M 111 271 L 401 271 C 454.01935 271 497 313.98065 497 367 L 497 451 C 497 462.0457 488.0457 471 477 471 L 35 471 C 23.954306 471 15 462.0457 15 451 L 15 367 C 15 313.98065 57.980663 271 111 271 Z"/></g><path id="path2" fill="none" stroke="currentColor" stroke-width="30" stroke-linecap="round" stroke-linejoin="round" d="M 364 123 C 364 182.64676 315.64676 231 256 231 C 196.35326 231 148 182.64676 148 123 C 148 63.35325 196.35326 15 256 15 C 315.64676 15 364 63.35325 364 123 Z"/></g></svg>