<!--vertex--><svg width="512" height="512" xmlns="http://www.w3.org/2000/svg"><g id="layer1"><path id="rect1" fill="none" stroke="currentColor" stroke-width="30" stroke-linecap="round" stroke-linejoin="round" d="M 111 15 L 322 15 L 433 126 L 433 465 C 433 482.67313 418.67313 497 401 497 L 111 497 C 93.32689 497 79 482.67313 79 465 L 79 47 C 79 29.326887 93.32689 15 111 15 Z"/><path id="path1" fill="none" stroke="currentColor" stroke-width="30" stroke-linecap="round" stroke-linejoin="round" d="M 322 15 L 322 94 C 322 111.67311 336.32687 126 354 126 L 433 126"/><path id="path2" fill="none" stroke="currentColor" stroke-width="28.4199" stroke-linecap="round" stroke-linejoin="round" d="M 150 118.75 L 255 118.75"/><path id="path3" fill="none" stroke="currentColor" stroke-width="30" stroke-linecap="round" stroke-linejoin="round" d="M 150 394.04004 L 362 394.04004"/><path id="path3-1" fill="none" stroke="currentColor" stroke-width="30" stroke-linecap="round" stroke-linejoin="round" d="M 150 325.02002 L 362 325.02002"/><path id="path3-3" fill="none" stroke="currentColor" stroke-width="30" stroke-linecap="round" stroke-linejoin="round" d="M 150 256 L 362 256"/><path id="path3-6" fill="none" stroke="currentColor" stroke-width="30" stroke-linecap="round" stroke-linejoin="round" d="M 150 186.97998 L 362 186.97998"/></g></svg>