<!--vertex--><svg width="512" height="512" xmlns="http://www.w3.org/2000/svg"><g id="layer1"><g transform="matrix(1 0 0 1 0 3.103515)"><path id="rect1" fill="none" stroke="currentColor" stroke-width="30" stroke-linecap="round" stroke-linejoin="round" d="M 15 109.75454 L 15 396.03842 C 15.000001 415.2501 30.574133 430.8242 49.7858 430.8242 L 143.14194 430.8242 L 462.21417 430.8242 C 481.42587 430.8242 497 415.2501 497 396.03842 L 497 177.7272 C 497 158.51555 481.42587 142.9414 462.21417 142.9414 L 194.7752 142.9414 C 185.47058 142.9414 177.92773 135.39854 177.92773 126.09393 L 177.92773 102.75742 C 177.92773 87.410164 165.48631 74.96875 150.13905 74.96875 L 49.7858 74.96875 C 30.574133 74.96875 15.000001 90.54289 15 109.75454 Z"/></g></g></svg>